<svg xmlns="http://www.w3.org/2000/svg" version="1.1" xmlns:xlink="http://www.w3.org/1999/xlink" xmlns:svgjs="http://svgjs.dev/svgjs" width="1500" height="1500" viewBox="0 0 1500 1500"><rect width="1500" height="1500" fill="#ffffff"></rect><g transform="matrix(0.6666666666666666,0,0,0.6666666666666666,249.78425655976667,249.78425655976673)"><svg viewBox="0 0 343 343" data-background-color="#ffffff" preserveAspectRatio="xMidYMid meet" height="1500" width="1500" xmlns="http://www.w3.org/2000/svg" xmlns:xlink="http://www.w3.org/1999/xlink"><g id="tight-bounds" transform="matrix(1,0,0,1,0.0740000000000407,0.07400000000001228)"><svg viewBox="0 0 342.85155851775386 342.85155851775386" height="342.85155851775386" width="342.85155851775386"><g><svg></svg></g><g><svg viewBox="0 0 342.85155851775386 342.85155851775386" height="342.85155851775386" width="342.85155851775386"><g><path d="M0 171.426c0-94.676 76.75-171.426 171.426-171.426 94.676 0 171.426 76.75 171.426 171.426 0 94.676-76.75 171.426-171.426 171.426-94.676 0-171.426-76.75-171.426-171.426zM171.426 337.684c91.822 0 166.258-74.436 166.258-166.258 0-91.822-74.436-166.258-166.258-166.258-91.822 0-166.258 74.436-166.258 166.258 0 91.822 74.436 166.258 166.258 166.258z" data-fill-palette-color="tertiary" fill="#000000" stroke="transparent"></path><ellipse rx="164.56874808852186" ry="164.56874808852186" cx="171.42577925887693" cy="171.42577925887693" fill="#000000" stroke="transparent" stroke-width="0" fill-opacity="1" data-fill-palette-color="tertiary"></ellipse></g><g transform="matrix(1,0,0,1,64.84655864529837,96.4115557049158)"><svg viewBox="0 0 213.1584412271571 150.02844710792226" height="150.02844710792226" width="213.1584412271571"><g><svg viewBox="0 0 213.1584412271571 150.02844710792226" height="150.02844710792226" width="213.1584412271571"><g><svg viewBox="0 0 213.1584412271571 150.02844710792226" height="150.02844710792226" width="213.1584412271571"><g transform="matrix(1,0,0,1,0,92.7235991554861)"><svg viewBox="0 0 213.1584412271571 57.304847952436155" height="57.304847952436155" width="213.1584412271571"><g id="textblocktransform"><svg viewBox="0 0 213.1584412271571 57.304847952436155" height="57.304847952436155" width="213.1584412271571" id="textblock"><g><svg viewBox="0 0 213.1584412271571 57.304847952436155" height="57.304847952436155" width="213.1584412271571"><g transform="matrix(1,0,0,1,0,0)"><svg width="213.1584412271571" viewBox="2.45 -36.15 136.69 36.75" height="57.304847952436155" data-palette-color="#ffa62e"><path d="M15.25-14L15.25-17.85 28.65-17.85 28.65 0 25.75 0 24.8-3.8Q21.8 0.6 15.95 0.6L15.95 0.6Q9.4 0.6 5.93-3.85 2.45-8.3 2.45-17.15L2.45-17.15Q2.45-25.9 6.05-30.4 9.65-34.9 16.2-34.9L16.2-34.9Q21.8-34.9 25.23-31.75 28.65-28.6 28.65-22.6L28.65-22.6 24.15-22.6Q24.15-26.75 22.03-28.8 19.9-30.85 16.2-30.85L16.2-30.85Q11.85-30.85 9.45-27.7 7.05-24.55 7.05-18.4L7.05-18.4 7.05-15.9Q7.05-9.7 9.33-6.58 11.6-3.45 15.95-3.45L15.95-3.45Q20.2-3.45 22.18-5.85 24.15-8.25 24.15-13.2L24.15-13.2 24.15-14 15.25-14ZM58.9 0.6Q45.4 0.6 45.4-17.15L45.4-17.15Q45.4-34.9 58.9-34.9L58.9-34.9Q64.34-34.9 67.59-31.58 70.84-28.25 70.84-21.9L70.84-21.9 66.34-21.9Q66.34-26.3 64.34-28.58 62.34-30.85 58.9-30.85L58.9-30.85Q54.4-30.85 52.2-27.75 50-24.65 50-18.4L50-18.4 50-15.9Q50-9.65 52.2-6.55 54.4-3.45 58.9-3.45L58.9-3.45Q62.45-3.45 64.47-5.7 66.5-7.95 66.5-12.3L66.5-12.3 70.84-12.3Q70.84-5.9 67.62-2.65 64.4 0.6 58.9 0.6L58.9 0.6ZM84.29 0.6Q79.64 0.6 77.27-2.78 74.89-6.15 74.89-13.15L74.89-13.15Q74.89-20.15 77.27-23.53 79.64-26.9 84.29-26.9L84.29-26.9Q88.94-26.9 91.32-23.53 93.69-20.15 93.69-13.15L93.69-13.15Q93.69-6.15 91.32-2.78 88.94 0.6 84.29 0.6L84.29 0.6ZM84.29-3.05Q89.39-3.05 89.39-12.2L89.39-12.2 89.39-14.1Q89.39-23.25 84.29-23.25L84.29-23.25Q79.19-23.25 79.19-14.1L79.19-14.1 79.19-12.2Q79.19-3.05 84.29-3.05L84.29-3.05ZM105.84 0.6Q101.94 0.6 99.82-2.8 97.69-6.2 97.69-13.2L97.69-13.2Q97.69-20 99.87-23.45 102.04-26.9 105.54-26.9L105.54-26.9Q107.49-26.9 108.99-26.08 110.49-25.25 111.14-23.8L111.14-23.8 111.39-23.8 111.39-36.15 115.49-36.15 115.49 0 112.39 0 111.84-3.05 111.59-3.05Q110.64-1.25 109.14-0.33 107.64 0.6 105.84 0.6L105.84 0.6ZM106.69-3.05Q111.39-3.05 111.39-12.2L111.39-12.2 111.39-13.9Q111.39-23.25 106.69-23.25L106.69-23.25Q104.29-23.25 103.14-21.1 101.99-18.95 101.99-14.1L101.99-14.1 101.99-12.2Q101.99-7.35 103.14-5.2 104.29-3.05 106.69-3.05L106.69-3.05ZM130.54 0.6Q125.54 0.6 123.06-2.68 120.59-5.95 120.59-13.15L120.59-13.15Q120.59-20.2 123.04-23.55 125.49-26.9 130.49-26.9L130.49-26.9Q134.89-26.9 137.01-23.98 139.14-21.05 139.14-14.55L139.14-14.55 139.14-11.95 124.89-11.95Q124.94-7.35 126.31-5.2 127.69-3.05 130.64-3.05L130.64-3.05Q132.64-3.05 133.86-4.65 135.09-6.25 135.09-8.95L135.09-8.95 139.14-8.95Q139.14-4.55 136.76-1.98 134.39 0.6 130.54 0.6L130.54 0.6ZM124.94-15.6L134.84-15.6Q134.84-19.35 133.74-21.3 132.64-23.25 130.49-23.25L130.49-23.25Q127.84-23.25 126.51-21.38 125.19-19.5 124.94-15.6L124.94-15.6Z" opacity="1" transform="matrix(1,0,0,1,0,0)" fill="#ffffff" class="wordmark-text-0" data-fill-palette-color="quaternary" id="text-0"></path></svg></g></svg></g></svg></g></svg></g><g transform="matrix(1,0,0,1,53.60355087102759,0)"><svg viewBox="0 0 105.95133948510193 79.19529987026678" height="79.19529987026678" width="105.95133948510193"><g><svg xmlns="http://www.w3.org/2000/svg" xmlns:xlink="http://www.w3.org/1999/xlink" version="1.1" x="0" y="0" viewBox="1.1 13.399999999999999 97.80000000000001 73.10242952049867" enable-background="new 0 0 100 100" xml:space="preserve" height="79.19529987026678" width="105.95133948510193" class="icon-icon-0" data-fill-palette-color="quaternary" id="icon-0"><path d="M1.1 79.9v-4.1h5.4 0.3V33.2c0-3.4 2.7-6.1 6.1-6.1h23.7c-0.5 2-0.8 4.1-0.8 6.3 0 0.7 0 1.3 0.1 2H15v40.4h21.2v0.4c0 1.3 1 2.3 2.3 2.3h11.6c1.3 0 2.3-1 2.3-2.3v-0.4h21.2V58.5H79c1 0 2-0.1 3-0.2v17.4h0.3 5.4v4.1c0 3.7-3 6.7-6.7 6.7h-6.4H14.2 7.8C4.1 86.6 1.1 83.6 1.1 79.9zM40.8 33.4c0-11 9-20 20-20h18.1c11 0 20 9 20 20 0 11-9 20-20 20H65.4l-9.2 9.2c-0.6 0.6-1.7 0.2-1.7-0.7v-9.5C46.5 49.7 40.8 42.3 40.8 33.4zM52.7 33.5c0 1.1 0.2 2.1 0.6 3.1 0.4 1 1 1.9 1.8 2.7 0.8 0.8 1.7 1.4 2.7 1.8 1 0.4 2 0.6 3.1 0.6 1.1 0 2.1-0.2 3.1-0.6 1-0.4 1.9-1 2.7-1.8l0.6-0.6-2.6-2.6-0.6 0.6c-0.9 0.9-2 1.3-3.2 1.3-1.2 0-2.3-0.5-3.2-1.3-0.9-0.9-1.3-2-1.3-3.2s0.5-2.3 1.3-3.2c0.9-0.9 2-1.3 3.2-1.3 1.2 0 2.3 0.5 3.2 1.3l3.2 3.2 5.8 5.8c0.8 0.8 1.7 1.4 2.7 1.8 1 0.4 2 0.6 3.1 0.6 1.1 0 2.1-0.2 3.1-0.6 1-0.4 1.9-1 2.7-1.8 0.8-0.8 1.4-1.7 1.8-2.7 0.4-1 0.6-2 0.6-3.1 0-1.1-0.2-2.1-0.6-3.1-0.4-1-1-1.9-1.8-2.7-0.8-0.8-1.7-1.4-2.7-1.8-1-0.4-2-0.6-3.1-0.6-1.1 0-2.1 0.2-3.1 0.6-1 0.4-1.9 1-2.7 1.8l-0.7 0.7L75 31l0.7-0.7c0.9-0.9 2-1.3 3.2-1.3 1.2 0 2.3 0.5 3.2 1.3 0.9 0.9 1.3 2 1.3 3.2s-0.5 2.3-1.3 3.2c-0.9 0.9-2 1.3-3.2 1.3-1.2 0-2.3-0.5-3.2-1.3l-1.3-1.3-7.7-7.7c-0.8-0.8-1.7-1.4-2.7-1.8-1-0.4-2-0.6-3.1-0.6-1.1 0-2.1 0.2-3.1 0.6-1 0.4-1.9 1-2.7 1.8-0.8 0.8-1.4 1.7-1.8 2.7C52.9 31.4 52.7 32.4 52.7 33.5z" fill="#ffffff" data-fill-palette-color="quaternary"></path></svg></g></svg></g><g></g></svg></g></svg></g></svg></g></svg></g><defs></defs></svg><rect width="342.85155851775386" height="342.85155851775386" fill="none" stroke="none" visibility="hidden"></rect></g></svg></g></svg>